<svg width="115" height="25" viewBox="0 0 115 25" fill="none" xmlns="http://www.w3.org/2000/svg">
<path d="M113.894 11.5658C114.23 12.1361 113.9 12.8981 112.831 13.7528C111.646 14.6903 110.426 15.5843 109.224 16.5003C108.738 17.1631 108.033 17.4969 107.273 17.6388C105.97 17.8942 105.08 16.8137 105.59 15.5912C105.865 14.9305 106.202 14.2567 106.967 13.9923C108.28 12.886 109.755 12.0186 111.331 11.352C112.563 10.8315 113.53 10.957 113.894 11.5658Z" fill="black"/>
<path d="M105.039 5.42937C104.672 5.66103 104.296 5.921 104.018 6.24871C102.783 7.70125 101.566 9.1712 100.642 10.8518C100.455 11.1903 100.303 11.559 100.203 11.9318C100.053 12.4945 100.174 13.0064 100.689 13.3513C101.199 13.6926 101.702 13.5989 102.201 13.2952C102.586 13.0618 102.898 12.7498 103.144 12.3862C103.609 11.6988 104.043 10.9911 104.311 10.5708C104.915 9.52016 105.371 8.76677 105.782 7.98999C106.032 7.51714 106.246 7.01875 106.417 6.51073C106.546 6.12783 106.502 5.72811 106.141 5.45179C105.786 5.17953 105.388 5.21157 105.039 5.42937Z" fill="black"/>
<path d="M96.8293 1.70135C97.0061 2.24329 97.249 2.7957 97.0434 3.39633L97.0509 3.40102C97.3413 5.38557 97.6124 7.36813 97.3848 9.37714C97.3205 9.95306 97.1994 10.5347 97.0491 11.0975C96.906 11.665 96.527 12.0295 95.9269 12.1168C95.3272 12.2044 94.9005 11.8898 94.5637 11.4345C94.2494 10.9933 94.1026 10.4705 93.9918 9.93943C93.605 8.15465 93.6481 6.35198 93.7793 4.54274C93.5118 3.61887 93.7266 2.70993 93.939 1.82074C94.1161 1.11817 94.5408 0.584293 95.3322 0.524456C95.979 0.478569 96.5669 0.916822 96.8293 1.70135Z" fill="black"/>
<path d="M85.3368 24.345L84.3478 15.053L82.2318 15.352L82.0938 12.983L84.1178 12.891L83.7728 9.671L89.4998 8.912L89.0398 12.638L91.3168 12.523L91.2478 14.064L88.8098 14.409L87.6138 24.138L85.3368 24.345Z" fill="black"/>
<path d="M75.1081 24.345L73.9351 12.937L78.8571 12.178L78.3971 15.858H78.5581C79.1407 14.5853 79.8307 13.5887 80.6281 12.868C81.4407 12.132 82.3147 11.7257 83.2501 11.649L82.6061 16.548C82.3607 16.5173 82.1231 16.4943 81.8931 16.479C81.6784 16.4483 81.4637 16.433 81.2491 16.433C80.5897 16.433 80.0224 16.5787 79.5471 16.87C79.0871 17.1613 78.7037 17.6827 78.3971 18.434C78.1057 19.17 77.8757 20.205 77.7071 21.539L77.3851 24.138L75.1081 24.345Z" fill="black"/>
<path d="M67.5621 24.552C66.4734 24.552 65.5458 24.4217 64.7791 24.161C64.0278 23.9157 63.4144 23.6013 62.9391 23.218C62.8164 22.6047 62.7244 22.0143 62.6631 21.447C62.6171 20.8643 62.5941 20.3047 62.5941 19.768C62.5941 18.6947 62.7474 17.698 63.0541 16.778C63.3761 15.858 63.7671 15.0453 64.2271 14.34C64.7024 13.6193 65.1854 13.029 65.6761 12.569C66.1668 12.0937 66.5808 11.7717 66.9181 11.603C67.6081 11.9557 68.2904 12.385 68.9651 12.891C69.6398 13.397 70.2531 13.9873 70.8051 14.662C71.3724 15.3367 71.8248 16.0957 72.1621 16.939C72.4994 17.7823 72.6681 18.7253 72.6681 19.768C72.6681 20.826 72.5224 21.7077 72.2311 22.413C71.9398 23.1183 71.4261 23.6473 70.6901 24C69.9541 24.368 68.9114 24.552 67.5621 24.552ZM66.3201 22.551C66.9028 22.551 67.4854 22.5127 68.0681 22.436C68.6661 22.344 69.1874 22.2213 69.6321 22.068C69.7548 21.5773 69.8468 21.0867 69.9081 20.596C69.9694 20.1053 70.0001 19.6223 70.0001 19.147C70.0001 17.6903 69.6934 16.3563 69.0801 15.145C68.2214 15.5897 67.4624 16.2107 66.8031 17.008C66.1438 17.79 65.6224 18.6563 65.2391 19.607C64.8711 20.5423 64.6871 21.4777 64.6871 22.413C65.1778 22.505 65.7221 22.551 66.3201 22.551Z" fill="black"/>
<path d="M52.7328 24.322L51.4218 9.50999C51.8972 9.35666 52.4952 9.20333 53.2158 9.05C53.9518 8.88133 54.7568 8.74333 55.6308 8.636C56.5048 8.52866 57.3865 8.475 58.2758 8.475C59.1345 8.475 59.9702 8.55933 60.7828 8.728C61.6108 8.89666 62.3468 9.18033 62.9908 9.579C63.2668 10.407 63.4048 11.1967 63.4048 11.948C63.4048 13.19 63.0445 14.2787 62.3238 15.214C61.6185 16.134 60.6755 16.9083 59.4948 17.537C58.3142 18.1503 57.0108 18.618 55.5848 18.94L57.0108 24.345L52.7328 24.322ZM55.7458 17.376C56.7885 16.8087 57.5858 16.088 58.1378 15.214C58.6898 14.3247 58.9658 13.4583 58.9658 12.615C58.9658 12.0783 58.8432 11.58 58.5978 11.12C58.3678 10.6447 58.0075 10.2613 57.5168 9.97C57.3635 9.97 57.1948 9.98533 57.0108 10.016C56.8422 10.0467 56.6735 10.085 56.5048 10.131L55.7458 17.376Z" fill="black"/>
<path d="M38.0349 24.345L36.8619 8.291L41.7839 7.532L41.5712 9.901L41.3584 12.27L41.1457 14.639L40.9329 17.008H41.1399C41.7533 15.49 42.4816 14.271 43.3249 13.351C44.1836 12.431 45.0883 11.971 46.0389 11.971C46.3149 11.971 46.5909 12.017 46.8669 12.109C47.2196 12.5383 47.5186 13.1287 47.7639 13.88C48.0093 14.616 48.2086 15.4363 48.3619 16.341C48.5153 17.2457 48.6303 18.1733 48.7069 19.124C48.7836 20.0593 48.8373 20.9563 48.8679 21.815C48.8986 22.6583 48.9139 23.3867 48.9139 24L44.7739 24.345C44.7739 22.8577 44.7586 21.5697 44.7279 20.481C44.6973 19.3923 44.6513 18.3957 44.5899 17.491C44.5439 16.571 44.4749 15.6433 44.3829 14.708C44.0916 14.8153 43.7543 15.0147 43.3709 15.306C43.0029 15.5973 42.6273 16.0727 42.2439 16.732C41.8606 17.3913 41.5003 18.319 41.1629 19.515C40.8256 20.6957 40.5419 22.2367 40.3119 24.138L38.0349 24.345Z" fill="#EE2B69"/>
<path d="M32.5848 24.552C31.4808 24.552 30.4765 24.4217 29.5718 24.161C28.6825 23.9003 28.0078 23.5783 27.5478 23.195C27.4252 22.5817 27.3332 22.0297 27.2718 21.539C27.2258 21.033 27.2028 20.5577 27.2028 20.113C27.2028 18.7483 27.4175 17.4987 27.8468 16.364C28.2762 15.214 28.8205 14.2327 29.4798 13.42C30.1392 12.592 30.8138 11.9863 31.5038 11.603L35.4828 14.202C33.5815 15.2293 32.0712 16.456 30.9518 17.882C29.8325 19.308 29.2728 20.8183 29.2728 22.413C29.9168 22.505 30.5838 22.551 31.2738 22.551C31.9485 22.551 32.6308 22.4973 33.3208 22.39C34.0262 22.2673 34.7315 22.068 35.4368 21.792L36.1268 24.023C35.5288 24.2223 34.9308 24.3603 34.3328 24.437C33.7348 24.5137 33.1522 24.552 32.5848 24.552Z" fill="#EE2B69"/>
<path d="M21.5396 24.345L20.5506 15.053L18.4346 15.352L18.2966 12.983L20.3206 12.891L19.9756 9.671L25.7026 8.912L25.2426 12.638L27.5196 12.523L27.4506 14.064L25.0126 14.409L23.8166 24.138L21.5396 24.345Z" fill="#EE2B69"/>
<path d="M15.1568 11.028C14.5741 11.028 14.0681 10.821 13.6388 10.407C13.2248 9.97766 13.0178 9.47166 13.0178 8.889C13.0178 8.30633 13.2248 7.80799 13.6388 7.39399C14.0681 6.96466 14.5741 6.74999 15.1568 6.74999C15.7394 6.74999 16.2378 6.96466 16.6518 7.39399C17.0811 7.80799 17.2958 8.30633 17.2958 8.889C17.2958 9.47166 17.0811 9.97766 16.6518 10.407C16.2378 10.821 15.7394 11.028 15.1568 11.028ZM14.0988 24.345L12.9258 12.96L17.8478 12.201L16.3758 24.138L14.0988 24.345Z" fill="#EE2B69"/>
<path d="M1.79592 24.322L0.484924 9.50999C0.960258 9.35666 1.55826 9.20333 2.27892 9.05C3.01492 8.88133 3.81992 8.74333 4.69392 8.636C5.56792 8.52866 6.44959 8.475 7.33892 8.475C8.19759 8.475 9.03326 8.55933 9.84592 8.728C10.6739 8.89666 11.4099 9.18033 12.0539 9.579C12.3299 10.407 12.4679 11.1967 12.4679 11.948C12.4679 13.19 12.1076 14.2787 11.3869 15.214C10.6816 16.134 9.73859 16.9083 8.55792 17.537C7.37726 18.1503 6.07392 18.618 4.64792 18.94L4.09592 24.092L1.79592 24.322ZM4.80892 17.376C5.85159 16.8087 6.64892 16.088 7.20092 15.214C7.75292 14.3247 8.02892 13.4583 8.02892 12.615C8.02892 12.0783 7.90626 11.58 7.66092 11.12C7.43092 10.6447 7.07059 10.2613 6.57992 9.97C6.42659 9.97 6.25792 9.98533 6.07392 10.016C5.90526 10.0467 5.73659 10.085 5.56792 10.131L4.80892 17.376Z" fill="#EE2B69"/>
</svg>
